<svg id="그룹_99" data-name="그룹 99" xmlns="http://www.w3.org/2000/svg" width="15.361" height="13.264" viewBox="0 0 15.361 13.264">
  <path id="패스_19" data-name="패스 19" d="M248.676,36.7a4.05,4.05,0,0,0-2.151-.624,4.212,4.212,0,0,0-3.369,1.741,4.21,4.21,0,0,0-3.369-1.741,4.048,4.048,0,0,0-2.151.624,4.876,4.876,0,0,0-1.581,6.374c.973,1.82,5.08,4.981,6.564,6.086a.9.9,0,0,0,1.075,0c1.484-1.105,5.592-4.266,6.564-6.086A4.876,4.876,0,0,0,248.676,36.7Z" transform="translate(-235.476 -36.072)" fill="#ee3b4a"/>
</svg>
