<svg id="그룹_577" data-name="그룹 577" xmlns="http://www.w3.org/2000/svg" width="15" height="13" viewBox="0 0 15 13">
  <path id="패스_19" data-name="패스 19" d="M248.366,36.684a3.944,3.944,0,0,0-2.1-.612,4.108,4.108,0,0,0-3.29,1.706,4.107,4.107,0,0,0-3.289-1.706,3.942,3.942,0,0,0-2.1.612,4.789,4.789,0,0,0-1.544,6.248c.95,1.784,4.96,4.882,6.409,5.965a.874.874,0,0,0,1.049,0c1.449-1.083,5.46-4.181,6.41-5.965A4.789,4.789,0,0,0,248.366,36.684Z" transform="translate(-235.476 -36.072)" fill="#a7a7a7"/>
</svg>
