<svg xmlns="http://www.w3.org/2000/svg" width="43.872" height="12.413" viewBox="0 0 43.872 12.413">
  <g id="그룹_126" data-name="그룹 126" transform="translate(-364.602 -133.797)">
    <path id="패스_31" data-name="패스 31" d="M323,353.815a.791.791,0,0,1,.385.015,1.376,1.376,0,0,1,.537.222.316.316,0,0,1,.142.258q0,2.7,0,5.406a10.1,10.1,0,0,1-.076,1.772,2.438,2.438,0,0,1-.606,1.3,1.445,1.445,0,0,1-.388.322.755.755,0,0,1-.409.116.161.161,0,0,1-.055-.129,1.625,1.625,0,0,1,.109-.405,5.35,5.35,0,0,0,.192-1.39c.012-2.2.016-4.392.027-6.588a1.006,1.006,0,0,0-.013-.17c-.084,0-.137.073-.194.126a3.048,3.048,0,0,0-.639.9,4.011,4.011,0,0,0-.351,1.368,2.594,2.594,0,0,0,.061.916,1.748,1.748,0,0,0,.3.645.242.242,0,0,1,.032.278c-.08.083-.2.039-.3.009a1.829,1.829,0,0,1-.8-.591,1.851,1.851,0,0,1-.362-1.119,3.489,3.489,0,0,1,.246-1.021,4.1,4.1,0,0,1,.81-1.315,4.648,4.648,0,0,1,.752-.639,2.115,2.115,0,0,1,.59-.282Zm11.906.088a.473.473,0,0,1,.375-.059,2.8,2.8,0,0,1,.659.184.564.564,0,0,1,.172.118c-.02.491-.04.983-.066,1.474.5.022.99.05,1.485.079.086,0,.2.028.216.131a.771.771,0,0,1-.074.451c-.043.072-.1.159-.2.153-.48.008-.961.023-1.441.03-.027.691-.045,1.382-.069,2.072a14.89,14.89,0,0,0,0,1.891,2,2,0,0,0,.18.717.337.337,0,0,0,.246.191.534.534,0,0,0,.39-.138,1.706,1.706,0,0,0,.386-.536,4.479,4.479,0,0,0,.278-.711,1.991,1.991,0,0,0,.016-.327,5.152,5.152,0,0,1,.3-1.7,2.41,2.41,0,0,1,.693-1.051,1.328,1.328,0,0,1,1.337-.219.454.454,0,1,0,.7.22.39.39,0,0,1,.386-.123,1.384,1.384,0,0,1,.523.156.342.342,0,0,1,.2.265c-.031,1.054-.075,2.108-.042,3.162a3.942,3.942,0,0,0,.092.681.8.8,0,0,0,.228.445.355.355,0,0,0,.427-.028,1.49,1.49,0,0,0,.4-.594.354.354,0,0,0,.048-.2,6.963,6.963,0,0,1,.017-1.9,3.571,3.571,0,0,1,.418-1.213,2.214,2.214,0,0,1,.942-.9.806.806,0,0,1,.239-.079,1.5,1.5,0,0,1,1.083.413,1.663,1.663,0,0,1,.19.258,2.582,2.582,0,0,1,.041-.359c.064-.133.235-.141.362-.124a1.871,1.871,0,0,1,.625.19c.118.07.118.221.112.341-.011,1.188-.028,2.375-.036,3.563a9.467,9.467,0,0,0,.727-1.193,6.108,6.108,0,0,0,.589-1.593.977.977,0,0,1-.327-.5.964.964,0,0,1,.043-.486.757.757,0,0,1,.491-.522.776.776,0,0,1,.572.036.477.477,0,0,1,.228.358,1.226,1.226,0,0,1-.025.437c.318-.05.636-.1.948-.181a1.262,1.262,0,0,1,.659-.02.458.458,0,0,1,.3.336.84.84,0,0,1-.011.5,3.985,3.985,0,0,0-.15.657,5.319,5.319,0,0,0-.134,1.771,3.044,3.044,0,0,0,.194.775.55.55,0,0,0,.293.32.482.482,0,0,0,.407-.125,1.243,1.243,0,0,0,.364-.64,5.352,5.352,0,0,1-.055-1.893,4.16,4.16,0,0,1,.435-1.356,1.815,1.815,0,0,1,.762-.769,1.291,1.291,0,0,1,1.189.022,1.358,1.358,0,0,1,.522.524,1.02,1.02,0,0,1,.055-.387.459.459,0,0,1,.433-.1.993.993,0,0,1,.6.261c.1.107.05.259.051.389-.018.692-.047,1.384-.045,2.077a6.111,6.111,0,0,0,.125,1.582.665.665,0,0,0,.21.357.374.374,0,0,0,.435-.02,1.452,1.452,0,0,0,.379-.494,2.681,2.681,0,0,0,.213-.5c0-1.165.009-2.329.011-3.494a.247.247,0,0,1,.126-.255c.071-.044.155-.012.232,0a2.185,2.185,0,0,1,.613.142.211.211,0,0,1,.14.185c0,.575,0,1.151,0,1.726a1.64,1.64,0,0,0,.007.2c.17-.525.348-1.048.551-1.561a4.762,4.762,0,0,1,.267-.558.413.413,0,0,1,.408-.157,1.012,1.012,0,0,1,.81.439.673.673,0,0,1,.086.338c-.006.6.028,1.2.071,1.793.014.185.016.372.046.556a.079.079,0,0,0,.035-.056,9.255,9.255,0,0,1,.3-1.3,12.382,12.382,0,0,1,.491-1.4.566.566,0,0,1,.216-.3.711.711,0,0,1,.543-.011,1.638,1.638,0,0,1,.563.278.564.564,0,0,1,.215.4,21.966,21.966,0,0,0-.025,2.784,4.339,4.339,0,0,0,.115.759,1.162,1.162,0,0,0,.174.4.33.33,0,0,0,.375.117.539.539,0,0,0,.256-.262,3.955,3.955,0,0,0,.257-.829.256.256,0,0,1,.148-.206c.064-.04.13.01.181.047.066.061.046.157.047.237a2.381,2.381,0,0,1-.351,1.29,1.046,1.046,0,0,1-.962.466,1.091,1.091,0,0,1-.852-.5,2.938,2.938,0,0,1-.393-1.2,16.1,16.1,0,0,1-.061-2.511.209.209,0,0,0-.073.093,6.986,6.986,0,0,0-.517,1.474,9.635,9.635,0,0,0-.288,2.006.179.179,0,0,1-.146.173.733.733,0,0,1-.589,0,.875.875,0,0,1-.408-.442,2.13,2.13,0,0,1-.155-.609c-.111-.86-.149-1.728-.191-2.593.006-.062-.065-.022-.1-.016a6.468,6.468,0,0,0-.744,2.4,11.906,11.906,0,0,0-.1,1.464.252.252,0,0,1-.127.216.828.828,0,0,1-.479.066,1.148,1.148,0,0,1-.557-.149.259.259,0,0,1-.118-.2c-.012-.159-.015-.319-.028-.478a3.387,3.387,0,0,1-.265.382,1.238,1.238,0,0,1-.638.425,1.07,1.07,0,0,1-1.012-.311,1.581,1.581,0,0,1-.367-.8,1.987,1.987,0,0,1-.864.948,1.622,1.622,0,0,1-.613.181,1.207,1.207,0,0,1-.69-.108,1.543,1.543,0,0,1-.685-.758,1.4,1.4,0,0,1-.856.836,1.189,1.189,0,0,1-1.123-.34,2.262,2.262,0,0,1-.617-1.369,3.666,3.666,0,0,1,0-.734,8.438,8.438,0,0,1,.238-1.626.7.7,0,0,0,0-.088c-.293-.014-.587,0-.88,0a7.653,7.653,0,0,1-.6,1.43,12.422,12.422,0,0,1-1.5,2.19c.007.651.027,1.3,0,1.952a4.3,4.3,0,0,1-.324,1.512,1.825,1.825,0,0,1-.769.859,2.015,2.015,0,0,1-.848.238,1.774,1.774,0,0,1-1.034-.36,1.158,1.158,0,0,1-.392-.659,1.379,1.379,0,0,1,.023-.673,3.06,3.06,0,0,1,.671-1.072c.284-.322.612-.6.922-.9q.372-.348.747-.694c0-.18-.024-.361-.029-.541a2.758,2.758,0,0,1-.362.435,1.691,1.691,0,0,1-1.374.463,1.4,1.4,0,0,1-.834-.571,2.233,2.233,0,0,1-.209-.315,1.566,1.566,0,0,1-.851.858,1.114,1.114,0,0,1-1.125-.37,1.517,1.517,0,0,1-.323-.75,2.062,2.062,0,0,1-.776.906,1.651,1.651,0,0,1-.74.239,1.188,1.188,0,0,1-.812-.2,2.166,2.166,0,0,1-.755-1.283,3.093,3.093,0,0,1-.282.611,2.553,2.553,0,0,1-.381.492,1.172,1.172,0,0,1-.649.345,1.054,1.054,0,0,1-.808-.238,1.6,1.6,0,0,1-.408-.564,3.644,3.644,0,0,1-.285-1.242,4.4,4.4,0,0,1-.878,1.362,2.316,2.316,0,0,1-1.1.64,2.968,2.968,0,0,1-1.01.046,2.139,2.139,0,0,1-.842-.231.571.571,0,0,1-.287-.32.617.617,0,0,1,.155-.43.765.765,0,0,1,.322-.288c.13-.042.242.063.343.128a1.247,1.247,0,0,0,.542.308.528.528,0,0,0,.565-.192,1.139,1.139,0,0,0,.152-.567,1.4,1.4,0,0,0-.488-.934c-.233-.223-.478-.435-.719-.651-.343.585-.711,1.153-1.058,1.735a3.934,3.934,0,0,1-.776,1.015,1.584,1.584,0,0,1-.816.423.6.6,0,0,1-.547-.235,1.564,1.564,0,0,1-.278-.741,9.518,9.518,0,0,1-.032-1.414c.008-.6.039-1.2.059-1.8a2.954,2.954,0,0,0,.006-.385c-.04.009-.088.01-.113.048a6.513,6.513,0,0,0-1.209,2.258,12.919,12.919,0,0,0-.515,2.176.412.412,0,0,1-.331.077c-.14-.02-.283,0-.422-.03a.42.42,0,0,1-.26-.255,1.823,1.823,0,0,1-.111-.746q.018-2.126.031-4.252c0-.068.016-.155.089-.179a.874.874,0,0,1,.448.025.965.965,0,0,1,.465.21c.063.059.036.152.041.229,0,.786-.015,1.573-.011,2.359a10.457,10.457,0,0,1,.914-2.034,2.823,2.823,0,0,1,.286-.377,1.077,1.077,0,0,1,.758-.424,1.374,1.374,0,0,1,.638.194.863.863,0,0,1,.441.43.9.9,0,0,1,.028.371q-.03,1.014-.063,2.029c0,.276-.026.552-.01.828a1.335,1.335,0,0,0,.068.389c.028.069.069.149.151.162a.28.28,0,0,0,.2-.093,2.578,2.578,0,0,0,.326-.385c.284-.394.527-.815.769-1.235.142-.26.291-.517.422-.782-.046-.077-.117-.139-.158-.221a1.08,1.08,0,0,1-.118-.857,1.32,1.32,0,0,1,.479-.7,1.431,1.431,0,0,1,.547-.228.735.735,0,0,1,.556.079.4.4,0,0,1,.176.332,1.348,1.348,0,0,1-.194.69,3.4,3.4,0,0,1-.406.58,10.43,10.43,0,0,1,1.406,1.124,1.5,1.5,0,0,1,.438.839,1.647,1.647,0,0,1-.022.5,2.627,2.627,0,0,0,.9-1.547c.012-.924.009-1.848.019-2.773-.423-.008-.846-.009-1.268-.02a.287.287,0,0,1-.1-.245.888.888,0,0,1,.2-.594c.022-.034.065-.023.1-.026l1.13.015c.018-.428.028-.856.044-1.284a.552.552,0,0,1,.084-.36Zm4.61,3.567a.853.853,0,0,0-.547.463,2.846,2.846,0,0,0-.274.937,6.773,6.773,0,0,0-.053,1.269,2.472,2.472,0,0,0,.218.955.743.743,0,0,0,.387.371.429.429,0,0,0,.358-.019,1.209,1.209,0,0,0,.489-.548,3.768,3.768,0,0,0,.328-1.3,4.4,4.4,0,0,0-.063-1.391,1.214,1.214,0,0,0-.318-.588.587.587,0,0,0-.526-.149Zm5.262.016a1.09,1.09,0,0,0-.637.6,3.746,3.746,0,0,0-.307,1.318,4.346,4.346,0,0,0,.129,1.514.92.92,0,0,0,.443.571.479.479,0,0,0,.454-.03,1.087,1.087,0,0,0,.293-.283,2.414,2.414,0,0,0,.368-.85,5.62,5.62,0,0,0,.143-1.368,3.117,3.117,0,0,0-.13-.932.947.947,0,0,0-.326-.48.5.5,0,0,0-.43-.064Zm9.129.039a.834.834,0,0,0-.575.467,3.391,3.391,0,0,0-.314,1.3,5.017,5.017,0,0,0,.071,1.5,1.174,1.174,0,0,0,.353.642.49.49,0,0,0,.463.1.972.972,0,0,0,.468-.424,3.447,3.447,0,0,0,.413-1.461,4.253,4.253,0,0,0-.065-1.379,1.153,1.153,0,0,0-.329-.6.574.574,0,0,0-.485-.144Zm-8.506,5.538a5.009,5.009,0,0,0-1.137,1.557,1.021,1.021,0,0,0-.075.681.517.517,0,0,0,.362.373.864.864,0,0,0,.673-.066,1,1,0,0,0,.369-.512,4.161,4.161,0,0,0,.181-1.2c.006-.4.017-.79.02-1.186a4.491,4.491,0,0,0-.393.353Z" transform="translate(44 -220)" fill="#242424" fill-rule="evenodd"/>
  </g>
</svg>
